<?xml version="1.0" encoding="UTF-8"?>
<svg width="58px" height="44px" viewBox="0 0 58 44" version="1.1" xmlns="http://www.w3.org/2000/svg" xmlns:xlink="http://www.w3.org/1999/xlink">
    <!-- Generator: Sketch 52.3 (67297) - http://www.bohemiancoding.com/sketch -->
    <title>repeat</title>
    <desc>Created with Sketch.</desc>
    <g id="Page-1" stroke="none" stroke-width="1" fill="none" fill-rule="evenodd">
        <g id="One-Page-Template" transform="translate(-372.000000, -4652.000000)">
            <g id="Group-19" transform="translate(0.000000, 4266.000000)">
                <g id="Group-28" transform="translate(264.000000, 140.000000)">
                    <g id="Group-27" transform="translate(1.000000, 190.000000)">
                        <g id="Group-26">
                            <g id="repeat" transform="translate(101.599994, 43.999997)">
                                <rect id="bound" x="0" y="0" width="68.7999959" height="68.7999959"></rect>
                                <path d="M34.3999979,22.933332 L22.933332,22.933332 C16.6004672,22.933332 11.466666,28.0671332 11.466666,34.3999979 L11.466666,37.2666644 C11.466666,42.0163129 15.3170169,45.8666639 20.0666655,45.8666639 L20.0666655,51.5999969 C12.1505845,51.5999969 5.73333299,45.1827452 5.73333299,37.2666644 L5.73333299,34.3999979 C5.73333299,24.9007008 13.4340348,17.199999 22.933332,17.199999 L34.3999979,17.199999 L34.3999979,13.5535918 C34.3999979,13.2444306 34.4999592,12.9435558 34.6849667,12.6958606 C35.1586784,12.0616363 36.056838,11.9315153 36.6910625,12.4052271 L44.8812244,18.5225848 C44.9927202,18.6058626 45.0914935,18.704934 45.1744354,18.81668 C45.6462353,19.4523279 45.5134104,20.3500917 44.8777626,20.8218916 L36.6876007,26.9009151 C36.4405347,27.084296 36.1410162,27.1833061 35.8333312,27.1833061 C35.041723,27.1833061 34.3999979,26.5415809 34.3999979,25.7499729 L34.3999979,22.933332 Z" id="Combined-Shape" fill="#007C88"></path>
                                <path d="M34.5671748,45.8666639 L45.8666639,45.8666639 C52.1995287,45.8666639 57.3333299,40.7328627 57.3333299,34.3999979 L57.3333299,31.5333315 C57.3333299,26.7836829 53.4829789,22.933332 48.7333304,22.933332 L48.7333304,17.199999 C56.6494112,17.199999 63.0666629,23.6172505 63.0666629,31.5333315 L63.0666629,34.3999979 C63.0666629,43.8992951 55.3659611,51.5999969 45.8666639,51.5999969 L34.5671748,51.5999969 L34.5671748,54.4166378 C34.5671748,55.208246 33.9254497,55.849971 33.1338415,55.849971 C32.8261565,55.849971 32.526638,55.750961 32.279572,55.56758 L24.0894101,49.4885566 C23.4537623,49.0167566 23.3209374,48.1189929 23.7927373,47.4833449 C23.8756791,47.3715991 23.9744526,47.2725276 24.0859484,47.1892498 L32.2761103,41.0718922 C32.9103347,40.5981801 33.8084943,40.7283013 34.2822063,41.3625254 C34.4672135,41.6102209 34.5671748,41.9110956 34.5671748,42.2202567 L34.5671748,45.8666639 Z" id="Combined-Shape" fill="#007C88" opacity="0.3"></path>
                            </g>
                        </g>
                    </g>
                </g>
            </g>
        </g>
    </g>
</svg>