<?xml version="1.0" encoding="UTF-8"?>
<svg width="52px" height="53px" viewBox="0 0 52 53" version="1.1" xmlns="http://www.w3.org/2000/svg" xmlns:xlink="http://www.w3.org/1999/xlink">
    <!-- Generator: Sketch 52.3 (67297) - http://www.bohemiancoding.com/sketch -->
    <title>user</title>
    <desc>Created with Sketch.</desc>
    <g id="Page-1" stroke="none" stroke-width="1" fill="none" fill-rule="evenodd">
        <g id="One-Page-Template" transform="translate(-677.000000, -4648.000000)">
            <g id="Group-19" transform="translate(0.000000, 4266.000000)">
                <g id="Group-28" transform="translate(264.000000, 140.000000)">
                    <g id="Group-27" transform="translate(1.000000, 190.000000)">
                        <g id="Group-23" transform="translate(302.000000, 0.000000)">
                            <g id="Group-22" transform="translate(51.999997, 43.999997)">
                                <g id="user" transform="translate(49.599997, 0.000000)">
                                    <polygon id="Shape" points="0 0 68.7999959 0 68.7999959 68.7999959 0 68.7999959"></polygon>
                                    <path d="M34.3999979,31.5333315 C28.0671332,31.5333315 22.933332,26.3995302 22.933332,20.0666655 C22.933332,13.7338007 28.0671332,8.59999949 34.3999979,8.59999949 C40.7328627,8.59999949 45.8666639,13.7338007 45.8666639,20.0666655 C45.8666639,26.3995302 40.7328627,31.5333315 34.3999979,31.5333315 Z" id="Mask" fill="#643BDF" opacity="0.3"></path>
                                    <path d="M8.60186764,57.9043856 C9.71300718,44.2226763 20.8174808,37.2666644 34.352243,37.2666644 C48.0774841,37.2666644 59.3539964,43.8404837 60.1940174,57.9066632 C60.2274817,58.4670223 60.1940174,60.1999964 58.0405363,60.1999964 C47.417886,60.1999964 31.6328756,60.1999964 10.6855058,60.1999964 C9.96657424,60.1999964 8.54134247,58.6496458 8.60186764,57.9043856 Z" id="Mask-Copy" fill="#643BDF"></path>
                                </g>
                            </g>
                        </g>
                    </g>
                </g>
            </g>
        </g>
    </g>
</svg>