<?xml version="1.0" encoding="UTF-8"?>
<svg width="62px" height="49px" viewBox="0 0 62 49" version="1.1" xmlns="http://www.w3.org/2000/svg" xmlns:xlink="http://www.w3.org/1999/xlink">
    <!-- Generator: Sketch 52.3 (67297) - http://www.bohemiancoding.com/sketch -->
    <title>thunder-move</title>
    <desc>Created with Sketch.</desc>
    <g id="Page-1" stroke="none" stroke-width="1" fill="none" fill-rule="evenodd">
        <g id="One-Page-Template" transform="translate(-973.000000, -4650.000000)">
            <g id="Group-19" transform="translate(0.000000, 4266.000000)">
                <g id="Group-28" transform="translate(264.000000, 140.000000)">
                    <g id="Group-27" transform="translate(1.000000, 190.000000)">
                        <g id="Group-25" transform="translate(604.000000, 0.000000)">
                            <g id="thunder-move" transform="translate(101.599994, 43.999997)">
                                <rect id="Rectangle-10" x="0" y="0" width="68.7999959" height="68.7999959"></rect>
                                <path d="M46.9389053,57.158301 L63.7049259,32.00927 C64.3635835,31.0212835 64.0966097,29.6864145 63.1086232,29.0277569 C62.7554481,28.7923067 62.3404815,28.666665 61.9160179,28.666665 L48.7333304,28.666665 L48.7333304,12.8343002 C48.7333304,11.6468881 47.7707428,10.6843003 46.5833306,10.6843003 C45.8644712,10.6843003 45.1931739,11.0435677 44.7944226,11.6416948 L28.0284019,36.7907259 C27.3697442,37.7787124 27.636718,39.1135814 28.6247046,39.772239 C28.9778797,40.0076892 29.3928463,40.1333309 29.8173099,40.1333309 L42.9999974,40.1333309 L42.9999974,55.9656958 C42.9999974,57.1531078 43.9625851,58.1156957 45.1499973,58.1156957 C45.8688566,58.1156957 46.540154,57.7564281 46.9389053,57.158301 Z" id="Path-3" fill="#FF5949"></path>
                                <path d="M12.8999992,14.3333325 L27.2333317,14.3333325 C29.6081559,14.3333325 31.5333315,16.258508 31.5333315,18.6333322 C31.5333315,21.0081565 29.6081559,22.933332 27.2333317,22.933332 L12.8999992,22.933332 C10.525175,22.933332 8.59999949,21.0081565 8.59999949,18.6333322 C8.59999949,16.258508 10.525175,14.3333325 12.8999992,14.3333325 Z M12.8999992,48.7333304 L27.2333317,48.7333304 C29.6081559,48.7333304 31.5333315,50.658506 31.5333315,53.0333302 C31.5333315,55.4081544 29.6081559,57.3333299 27.2333317,57.3333299 L12.8999992,57.3333299 C10.525175,57.3333299 8.59999949,55.4081544 8.59999949,53.0333302 C8.59999949,50.658506 10.525175,48.7333304 12.8999992,48.7333304 Z M7.16666624,31.5333315 L18.6333322,31.5333315 C21.0081565,31.5333315 22.933332,33.458507 22.933332,35.8333312 C22.933332,38.2081554 21.0081565,40.1333309 18.6333322,40.1333309 L7.16666624,40.1333309 C4.79184197,40.1333309 2.8666665,38.2081554 2.8666665,35.8333312 C2.8666665,33.458507 4.79184197,31.5333315 7.16666624,31.5333315 Z" id="Combined-Shape" fill="#FF5949" fill-rule="nonzero" opacity="0.3"></path>
                            </g>
                        </g>
                    </g>
                </g>
            </g>
        </g>
    </g>
</svg>