<?xml version="1.0" encoding="UTF-8"?>
<svg width="34px" height="34px" viewBox="0 0 34 34" version="1.1" xmlns="http://www.w3.org/2000/svg" xmlns:xlink="http://www.w3.org/1999/xlink">
    <!-- Generator: Sketch 52.3 (67297) - http://www.bohemiancoding.com/sketch -->
    <title>expand-arrows</title>
    <desc>Created with Sketch.</desc>
    <g id="Page-1" stroke="none" stroke-width="1" fill="none" fill-rule="evenodd">
        <g id="One-Page-Template" transform="translate(-738.000000, -9554.000000)">
            <g id="Group-81" transform="translate(261.000000, 9335.000000)">
                <g id="Group-80" transform="translate(3.000000, 183.000000)">
                    <g id="Group-74" transform="translate(438.000000, 0.000000)">
                        <g id="Group-70">
                            <g id="Group-67">
                                <g id="Group-64">
                                    <g id="expand-arrows" transform="translate(28.000000, 28.000000)">
                                        <polygon id="Bound" points="0 0 50 0 50 50 0 50"></polygon>
                                        <path d="M22.0537217,25 L11.3843044,14.3305826 C10.5707121,13.5169903 10.5707121,12.1978966 11.3843044,11.3843044 C12.1978966,10.5707121 13.5169903,10.5707121 14.3305826,11.3843044 L25,22.0537217 L37.9008088,9.15291308 C38.7144008,8.33932081 40.0334946,8.33932081 40.8470869,9.15291308 C41.6606792,9.96650535 41.6606792,11.2855991 40.8470869,12.0991913 L27.9462783,25 L40.8470869,37.9008088 C41.6606792,38.7144008 41.6606792,40.0334946 40.8470869,40.8470869 C40.0334946,41.6606792 38.7144008,41.6606792 37.9008088,40.8470869 L25,27.9462783 L14.3305826,38.6156956 C13.5169903,39.4292879 12.1978966,39.4292879 11.3843044,38.6156956 C10.5707121,37.8021033 10.5707121,36.4830096 11.3843044,35.6694173 L22.0537217,25 Z" id="Combined-Shape" fill="#FF5949" fill-rule="nonzero" opacity="0.3"></path>
                                        <path d="M12.5,37.5 L18.75,37.5 C20.1388889,37.7382956 20.8333333,38.4327402 20.8333333,39.5833333 C20.8333333,40.7339265 20.1388889,41.428371 18.75,41.6666667 L8.33333333,41.6666667 L8.33333333,31.25 C8.33333333,29.861111 9.02777777,29.1666667 10.4166667,29.1666667 C11.8055556,29.1666667 12.5,29.861111 12.5,31.25 L12.5,37.5 Z M37.5,37.5 L37.5,31.25 C37.7382956,29.861111 38.4327402,29.1666667 39.5833333,29.1666667 C40.7339265,29.1666667 41.428371,29.861111 41.6666667,31.25 L41.6666667,41.6666667 L31.25,41.6666667 C29.861111,41.6666667 29.1666667,40.9722223 29.1666667,39.5833333 C29.1666667,38.1944444 29.861111,37.5 31.25,37.5 L37.5,37.5 Z M37.5,12.5 L31.25,12.5 C29.861111,12.2617043 29.1666667,11.5672599 29.1666667,10.4166667 C29.1666667,9.26607344 29.861111,8.571629 31.25,8.33333333 L41.6666667,8.33333333 L41.6666667,18.75 C41.6666667,20.1388889 40.9722223,20.8333333 39.5833333,20.8333333 C38.1944444,20.8333333 37.5,20.1388889 37.5,18.75 L37.5,12.5 Z M12.5,12.5 L12.5,18.75 C12.2617043,20.1388889 11.5672599,20.8333333 10.4166667,20.8333333 C9.26607344,20.8333333 8.571629,20.1388889 8.33333333,18.75 L8.33333333,8.33333333 L18.75,8.33333333 C20.1388889,8.33333333 20.8333333,9.02777777 20.8333333,10.4166667 C20.8333333,11.8055556 20.1388889,12.5 18.75,12.5 L12.5,12.5 Z" id="Combined-Shape" fill="#FF5949" fill-rule="nonzero"></path>
                                    </g>
                                </g>
                            </g>
                        </g>
                    </g>
                </g>
            </g>
        </g>
    </g>
</svg>