<?xml version="1.0" encoding="UTF-8"?>
<svg width="45px" height="35px" viewBox="0 0 45 35" version="1.1" xmlns="http://www.w3.org/2000/svg" xmlns:xlink="http://www.w3.org/1999/xlink">
    <!-- Generator: Sketch 52.3 (67297) - http://www.bohemiancoding.com/sketch -->
    <title>group</title>
    <desc>Created with Sketch.</desc>
    <g id="Page-1" stroke="none" stroke-width="1" fill="none" fill-rule="evenodd">
        <g id="One-Page-Template" transform="translate(-1163.000000, -9553.000000)">
            <g id="Group-81" transform="translate(261.000000, 9335.000000)">
                <g id="Group-80" transform="translate(3.000000, 183.000000)">
                    <g id="Group-79" transform="translate(869.000000, 0.000000)">
                        <g id="Group-76">
                            <g id="Group-75">
                                <g id="group" transform="translate(30.000000, 30.000000)">
                                    <polygon id="Shape" points="0 0 45 0 45 45 0 45"></polygon>
                                    <path d="M33.75,26.25 C30.6433984,26.25 28.125,23.7316016 28.125,20.625 C28.125,17.5183983 30.6433984,15 33.75,15 C36.8566016,15 39.375,17.5183983 39.375,20.625 C39.375,23.7316016 36.8566016,26.25 33.75,26.25 Z M16.875,20.625 C12.7328644,20.625 9.375,17.2671356 9.375,13.125 C9.375,8.98286438 12.7328644,5.625 16.875,5.625 C21.0171356,5.625 24.375,8.98286438 24.375,13.125 C24.375,17.2671356 21.0171356,20.625 16.875,20.625 Z" id="Combined-Shape" fill="#52D3B6" fill-rule="nonzero" opacity="0.5"></path>
                                    <path d="M33.0022427,28.1261576 C39.3894456,28.1959751 44.6047029,31.4252659 44.9971757,38.25 C45.0129836,38.5248855 44.9971757,39.375 43.9799061,39.375 L36.75,39.375 C36.75,35.1544976 35.3555503,31.2596863 33.0022427,28.1261576 Z M0.00122190805,37.8735103 C0.727984734,28.9247173 7.99108566,24.375 16.843765,24.375 C25.8210308,24.375 33.1966569,28.6747367 33.7460893,37.875 C33.7679773,38.2415139 33.7460893,39.375 32.3375623,39.375 C25.3896075,39.375 15.0651089,39.375 1.36406668,39.375 C0.893835291,39.375 -0.0383657822,38.3609625 0.00122190805,37.8735103 Z" id="Combined-Shape" fill="#52D3B6" fill-rule="nonzero"></path>
                                </g>
                            </g>
                        </g>
                    </g>
                </g>
            </g>
        </g>
    </g>
</svg>