<?xml version="1.0" encoding="UTF-8"?>
<svg width="39px" height="38px" viewBox="0 0 39 38" version="1.1" xmlns="http://www.w3.org/2000/svg" xmlns:xlink="http://www.w3.org/1999/xlink">
    <!-- Generator: Sketch 52.3 (67297) - http://www.bohemiancoding.com/sketch -->
    <title>active-call</title>
    <desc>Created with Sketch.</desc>
    <g id="Page-1" stroke="none" stroke-width="1" fill="none" fill-rule="evenodd">
        <g id="One-Page-Template" transform="translate(-297.000000, -9872.000000)">
            <g id="Group-81" transform="translate(261.000000, 9335.000000)">
                <g id="Group-80" transform="translate(3.000000, 183.000000)">
                    <g id="Group-73">
                        <g id="Group-69" transform="translate(0.000000, 322.000000)">
                            <g id="Group-66">
                                <g id="Group-63">
                                    <g id="active-call" transform="translate(28.000000, 28.000000)">
                                        <rect id="bound" x="0" y="0" width="50" height="50"></rect>
                                        <path d="M27.2499325,30.7999863 L31.8416529,26.2082658 C33.1098206,24.9400981 33.4242144,23.0027171 32.6221546,21.3985977 L32.3619873,20.8782631 C31.5599277,19.2741438 31.8743212,17.3367627 33.1424892,16.068595 L38.835831,10.3752531 C39.2426271,9.96845696 39.902174,9.96845696 40.30897,10.3752531 C40.3881381,10.4544211 40.4540252,10.5458346 40.5040954,10.6459752 L42.8040448,15.2458739 C44.5635337,18.7648515 43.8738442,23.0149094 41.0918481,25.7969054 L28.594295,38.2944585 C25.5660877,41.3226658 21.0868767,42.3800642 17.0241102,41.0258087 L11.9939443,39.3490867 C11.44817,39.1671619 11.1532117,38.5772452 11.3351365,38.031471 C11.3862748,37.878056 11.4724299,37.7386542 11.5867787,37.6243054 L17.1102616,32.1008225 C18.3784294,30.8326546 20.3158104,30.518261 21.9199298,31.3203206 L22.4402644,31.5804879 C24.0443837,32.3825477 25.9817648,32.068154 27.2499325,30.7999863 Z" id="Path-76" fill="#FFD032" fill-rule="nonzero"></path>
                                        <path d="M29.4751581,12.5148986 L29.0764558,16.6624457 C25.9961227,16.3663344 22.9369181,17.4353311 20.706958,19.6652913 C18.4842981,21.8879512 17.4148248,24.9345004 17.7013374,28.00549 L13.552687,28.3925448 C13.1521783,24.0996867 14.6517486,19.8279441 17.7606797,16.7190131 C20.8798435,13.5998493 25.1692554,12.1009736 29.4751581,12.5148986 Z M30.2043621,4.21313129 L29.8188521,8.3619255 C24.295479,7.84868846 18.8125154,9.7746209 14.8144015,13.7727348 C10.8218148,17.7653214 8.89553573,23.2387233 9.40154483,28.7550104 L5.25229831,29.1356208 C4.63439538,22.3995169 6.9908871,15.7036926 11.8681232,10.8264565 C16.7521196,5.94246019 23.4596121,3.58640277 30.2043621,4.21313129 Z" id="Combined-Shape" fill="#FFD032" fill-rule="nonzero" opacity="0.449999988"></path>
                                    </g>
                                </g>
                            </g>
                        </g>
                    </g>
                </g>
            </g>
        </g>
    </g>
</svg>