<?xml version="1.0" encoding="UTF-8"?>
<svg width="34px" height="40px" viewBox="0 0 34 40" version="1.1" xmlns="http://www.w3.org/2000/svg" xmlns:xlink="http://www.w3.org/1999/xlink">
    <!-- Generator: Sketch 52.3 (67297) - http://www.bohemiancoding.com/sketch -->
    <title>timer</title>
    <desc>Created with Sketch.</desc>
    <g id="Page-1" stroke="none" stroke-width="1" fill="none" fill-rule="evenodd">
        <g id="One-Page-Template" transform="translate(-738.000000, -9872.000000)">
            <g id="Group-81" transform="translate(261.000000, 9335.000000)">
                <g id="Group-80" transform="translate(3.000000, 183.000000)">
                    <g id="Group-74" transform="translate(438.000000, 0.000000)">
                        <g id="Group-72" transform="translate(0.000000, 322.000000)">
                            <g id="Group-71">
                                <g id="timer" transform="translate(28.000000, 28.000000)">
                                    <rect id="bound" x="0" y="0" width="50" height="50"></rect>
                                    <path d="M25,43.75 C15.7952542,43.75 8.33333333,36.2880792 8.33333333,27.0833333 C8.33333333,17.8785875 15.7952542,10.4166667 25,10.4166667 C34.2047458,10.4166667 41.6666667,17.8785875 41.6666667,27.0833333 C41.6666667,36.2880792 34.2047458,43.75 25,43.75 Z" id="Combined-Shape" fill="#007C88" opacity="0.449999988"></path>
                                    <path d="M27.0833333,10.545612 C26.4008454,10.4605069 25.7055423,10.4166667 25,10.4166667 C24.2944577,10.4166667 23.5991546,10.4605069 22.9166667,10.545612 L22.9166667,8.33333333 L20.8333333,8.33333333 C19.6827401,8.33333333 18.75,7.40059323 18.75,6.25 C18.75,5.09940677 19.6827401,4.16666667 20.8333333,4.16666667 L29.1666667,4.16666667 C30.3172598,4.16666667 31.25,5.09940677 31.25,6.25 C31.25,7.40059323 30.3172598,8.33333333 29.1666667,8.33333333 L27.0833333,8.33333333 L27.0833333,10.545612 Z" id="Combined-Shape" fill="#007C88"></path>
                                    <path d="M34.8123212,13.6098468 L36.5323623,11.8898058 C37.3459546,11.0762135 38.6650483,11.0762135 39.4786406,11.8898058 C40.2922329,12.7033981 40.2922329,14.0224918 39.4786406,14.836084 L37.8482002,16.4665243 C36.9599587,15.3928115 35.9397104,14.4322971 34.8123212,13.6098468 Z" id="Combined-Shape" fill="#007C88"></path>
                                    <path d="M24.9229492,15.625 L25.0770508,15.625 C25.6213596,15.625 26.0739027,16.0440691 26.1156494,16.5867745 L26.9970596,28.0451079 C27.0411827,28.6187098 26.6119554,29.1194752 26.0383533,29.1635983 C26.0117717,29.1656431 25.9851213,29.1666667 25.9584613,29.1666667 L24.0415388,29.1666667 C23.4662423,29.1666667 22.9998721,28.7002967 22.9998721,28.125 C22.9998721,28.0983398 23.0008956,28.0716894 23.0029404,28.0451079 L23.8843506,16.5867745 C23.9260973,16.0440691 24.3786404,15.625 24.9229492,15.625 Z" id="Path-107" fill="#007C88"></path>
                                </g>
                            </g>
                        </g>
                    </g>
                </g>
            </g>
        </g>
    </g>
</svg>