<?xml version="1.0" encoding="UTF-8"?>
<svg width="36px" height="30px" viewBox="0 0 36 30" version="1.1" xmlns="http://www.w3.org/2000/svg" xmlns:xlink="http://www.w3.org/1999/xlink">
    <!-- Generator: Sketch 52.3 (67297) - http://www.bohemiancoding.com/sketch -->
    <title>settings</title>
    <desc>Created with Sketch.</desc>
    <g id="Page-1" stroke="none" stroke-width="1" fill="none" fill-rule="evenodd">
        <g id="One-Page-Template" transform="translate(-298.000000, -9556.000000)">
            <g id="Group-81" transform="translate(261.000000, 9335.000000)">
                <g id="Group-80" transform="translate(3.000000, 183.000000)">
                    <g id="Group-73">
                        <g id="Group-68">
                            <g id="Group-65">
                                <g id="Group-62">
                                    <g id="settings" transform="translate(28.000000, 28.000000)">
                                        <rect id="Bound" opacity="0.200000003" x="0" y="0" width="50" height="50"></rect>
                                        <path d="M9.375,14.5833333 L19.7916667,14.5833333 C21.5175565,14.5833333 22.9166667,15.9824435 22.9166667,17.7083333 C22.9166667,19.4342232 21.5175565,20.8333333 19.7916667,20.8333333 L9.375,20.8333333 C7.64911017,20.8333333 6.25,19.4342232 6.25,17.7083333 C6.25,15.9824435 7.64911017,14.5833333 9.375,14.5833333 Z M28.125,31.25 L38.5416667,31.25 C40.2675565,31.25 41.6666667,32.6491102 41.6666667,34.375 C41.6666667,36.1008898 40.2675565,37.5 38.5416667,37.5 L28.125,37.5 C26.3991102,37.5 25,36.1008898 25,34.375 C25,32.6491102 26.3991102,31.25 28.125,31.25 Z" id="Combined-Shape" fill="#643BDF" fill-rule="nonzero" opacity="0.3"></path>
                                        <path d="M35.4166667,22.9166667 C31.9648871,22.9166667 29.1666667,20.1184464 29.1666667,16.6666667 C29.1666667,13.214887 31.9648871,10.4166667 35.4166667,10.4166667 C38.8684462,10.4166667 41.6666667,13.214887 41.6666667,16.6666667 C41.6666667,20.1184464 38.8684462,22.9166667 35.4166667,22.9166667 Z M12.5,39.5833333 C9.04822031,39.5833333 6.25,36.7851129 6.25,33.3333333 C6.25,29.8815538 9.04822031,27.0833333 12.5,27.0833333 C15.9517797,27.0833333 18.75,29.8815538 18.75,33.3333333 C18.75,36.7851129 15.9517797,39.5833333 12.5,39.5833333 Z" id="Combined-Shape" fill="#643BDF" fill-rule="nonzero"></path>
                                    </g>
                                </g>
                            </g>
                        </g>
                    </g>
                </g>
            </g>
        </g>
    </g>
</svg>