<?xml version="1.0" encoding="UTF-8"?>
<svg width="46px" height="32px" viewBox="0 0 46 32" version="1.1" xmlns="http://www.w3.org/2000/svg" xmlns:xlink="http://www.w3.org/1999/xlink">
    <!-- Generator: Sketch 52.3 (67297) - http://www.bohemiancoding.com/sketch -->
    <title>Group 6</title>
    <desc>Created with Sketch.</desc>
    <g id="Page-1" stroke="none" stroke-width="1" fill="none" fill-rule="evenodd">
        <g id="One-Page-Template" transform="translate(-424.000000, -1448.000000)">
            <g id="Group-15" transform="translate(315.000000, 1139.000000)">
                <g id="Group-14" transform="translate(0.000000, 273.000000)">
                    <g id="Group-9">
                        <g id="Group-7" transform="translate(79.000000, 0.000000)">
                            <g id="Group-6" transform="translate(28.000000, 28.000000)">
                                <g id="bezier-curve">
                                    <rect id="bound" x="0" y="0" width="49.6577381" height="49.7"></rect>
                                    <path d="M10.2483728,29.6182576 L6.30420654,28.3650758 C9.62327579,17.9011097 15.8763651,12.425 24.828869,12.425 C33.781373,12.425 40.0344622,17.9011097 43.3535316,28.3650758 L39.4093652,29.6182576 C36.5978496,20.7544458 31.815886,16.5666667 24.828869,16.5666667 C17.8418522,16.5666667 13.0598885,20.7544458 10.2483728,29.6182576 Z M24.828869,16.5666667 C25.9715861,16.5666667 26.8979415,15.639523 26.8979415,14.4958333 C26.8979415,13.3521437 25.9715861,12.425 24.828869,12.425 C23.686152,12.425 22.7597966,13.3521437 22.7597966,14.4958333 C22.7597966,15.639523 23.686152,16.5666667 24.828869,16.5666667 Z" id="Combined-Shape" fill="#643BDF" fill-rule="nonzero" opacity="0.3"></path>
                                    <path d="M11.8608244,12.425 L18.9748543,12.425 C19.8269736,10.0120808 22.1262078,8.28333333 24.828869,8.28333333 C27.5315303,8.28333333 29.8307645,10.0120808 30.6828839,12.425 L37.7969137,12.425 C38.5124184,11.187053 39.8497505,10.3541667 41.3814484,10.3541667 C43.6668827,10.3541667 45.5195933,12.208454 45.5195933,14.4958333 C45.5195933,16.7832127 43.6668827,18.6375 41.3814484,18.6375 C39.8497505,18.6375 38.5124184,17.8046137 37.7969137,16.5666667 L30.6828839,16.5666667 C29.8307645,18.9795859 27.5315303,20.7083333 24.828869,20.7083333 C22.1262078,20.7083333 19.8269736,18.9795859 18.9748543,16.5666667 L11.8608244,16.5666667 C11.1453197,17.8046137 9.8079875,18.6375 8.27628968,18.6375 C5.99085539,18.6375 4.13814484,16.7832127 4.13814484,14.4958333 C4.13814484,12.208454 5.99085539,10.3541667 8.27628968,10.3541667 C9.8079875,10.3541667 11.1453197,11.187053 11.8608244,12.425 Z M24.828869,16.5666667 C25.9715861,16.5666667 26.8979415,15.639523 26.8979415,14.4958333 C26.8979415,13.3521437 25.9715861,12.425 24.828869,12.425 C23.686152,12.425 22.7597966,13.3521437 22.7597966,14.4958333 C22.7597966,15.639523 23.686152,16.5666667 24.828869,16.5666667 Z M8.27628968,39.3458333 C4.84813825,39.3458333 2.06907242,36.5644022 2.06907242,33.1333333 C2.06907242,29.7022644 4.84813825,26.9208333 8.27628968,26.9208333 C11.7044411,26.9208333 14.4835069,29.7022644 14.4835069,33.1333333 C14.4835069,36.5644022 11.7044411,39.3458333 8.27628968,39.3458333 Z M8.27628968,35.2041667 C9.41900683,35.2041667 10.3453621,34.2770229 10.3453621,33.1333333 C10.3453621,31.9896438 9.41900683,31.0625 8.27628968,31.0625 C7.13357254,31.0625 6.20721726,31.9896438 6.20721726,33.1333333 C6.20721726,34.2770229 7.13357254,35.2041667 8.27628968,35.2041667 Z M41.3814484,39.3458333 C37.9532971,39.3458333 35.1742312,36.5644022 35.1742312,33.1333333 C35.1742312,29.7022644 37.9532971,26.9208333 41.3814484,26.9208333 C44.8095997,26.9208333 47.5886657,29.7022644 47.5886657,33.1333333 C47.5886657,36.5644022 44.8095997,39.3458333 41.3814484,39.3458333 Z M41.3814484,35.2041667 C42.5241655,35.2041667 43.4505208,34.2770229 43.4505208,33.1333333 C43.4505208,31.9896438 42.5241655,31.0625 41.3814484,31.0625 C40.2387314,31.0625 39.312376,31.9896438 39.312376,33.1333333 C39.312376,34.2770229 40.2387314,35.2041667 41.3814484,35.2041667 Z" id="Combined-Shape" fill="#643BDF" fill-rule="nonzero"></path>
                                </g>
                            </g>
                        </g>
                    </g>
                </g>
            </g>
        </g>
    </g>
</svg>