<?xml version="1.0" encoding="UTF-8"?>
<svg width="35px" height="34px" viewBox="0 0 35 34" version="1.1" xmlns="http://www.w3.org/2000/svg" xmlns:xlink="http://www.w3.org/1999/xlink">
    <!-- Generator: Sketch 52.3 (67297) - http://www.bohemiancoding.com/sketch -->
    <title>Group 8</title>
    <desc>Created with Sketch.</desc>
    <g id="Page-1" stroke="none" stroke-width="1" fill="none" fill-rule="evenodd">
        <g id="One-Page-Template" transform="translate(-1237.000000, -1448.000000)">
            <g id="Group-15" transform="translate(315.000000, 1139.000000)">
                <g id="Group-14" transform="translate(0.000000, 273.000000)">
                    <g id="Group-13" transform="translate(792.000000, 0.000000)">
                        <g id="Group-12" transform="translate(95.000000, 0.000000)">
                            <g id="Group-8" transform="translate(26.600000, 28.000000)">
                                <g id="barcode-read">
                                    <rect id="bound" x="0" y="0" width="51.7708333" height="49.7"></rect>
                                    <rect id="Rectangle-151" fill="#FF5949" opacity="0.3" x="8.62847222" y="8.28333333" width="17.2569444" height="33.1333333"></rect>
                                    <path d="M12.9427083,37.275 L19.4140625,37.275 C20.8521412,37.5118659 21.5711806,38.2021438 21.5711806,39.3458333 C21.5711806,40.4895229 20.8521412,41.1798008 19.4140625,41.4166667 L8.62847222,41.4166667 L8.62847222,31.0625 C8.62847222,29.6819444 9.34751157,28.9916667 10.7855903,28.9916667 C12.223669,28.9916667 12.9427083,29.6819444 12.9427083,31.0625 L12.9427083,37.275 Z M38.828125,37.275 L38.828125,31.0625 C39.0748603,29.6819444 39.7938998,28.9916667 40.9852431,28.9916667 C42.1765864,28.9916667 42.8956258,29.6819444 43.1423611,31.0625 L43.1423611,41.4166667 L32.3567708,41.4166667 C30.9186921,41.4166667 30.1996528,40.726389 30.1996528,39.3458333 C30.1996528,37.9652777 30.9186921,37.275 32.3567708,37.275 L38.828125,37.275 Z M38.828125,12.425 L32.3567708,12.425 C30.9186921,12.1881341 30.1996528,11.4978563 30.1996528,10.3541667 C30.1996528,9.210477 30.9186921,8.52019923 32.3567708,8.28333333 L43.1423611,8.28333333 L43.1423611,18.6375 C43.1423611,20.0180556 42.4233218,20.7083333 40.9852431,20.7083333 C39.5471643,20.7083333 38.828125,20.0180556 38.828125,18.6375 L38.828125,12.425 Z M12.9427083,12.425 L12.9427083,18.6375 C12.695973,20.0180556 11.9769337,20.7083333 10.7855903,20.7083333 C9.59424687,20.7083333 8.87520753,20.0180556 8.62847222,18.6375 L8.62847222,8.28333333 L19.4140625,8.28333333 C20.8521412,8.28333333 21.5711806,8.9736111 21.5711806,10.3541667 C21.5711806,11.7347222 20.8521412,12.425 19.4140625,12.425 L12.9427083,12.425 Z" id="Combined-Shape" fill="#FF5949" fill-rule="nonzero"></path>
                                </g>
                            </g>
                        </g>
                    </g>
                </g>
            </g>
        </g>
    </g>
</svg>